<?xml version="1.0" encoding="utf-8"?>
<!-- Generator: Adobe Illustrator 20.0.0, SVG Export Plug-In . SVG Version: 6.00 Build 0)  -->
<svg version="1.1" id="Layer_1" xmlns="http://www.w3.org/2000/svg" xmlns:xlink="http://www.w3.org/1999/xlink" x="0px" y="0px"
	 viewBox="0 0 100 100" style="enable-background:new 0 0 100 100;" xml:space="preserve">
<style type="text/css">
	.st0{fill:#FFA300;}
</style>
<path class="st0" d="M58.2,54.9c-0.9-0.6-2.3-1.1-4-1.6v11.4c0.6-0.1,1.2-0.3,1.8-0.4c2.9-1,4.3-2.9,4.3-5.6
	C60.3,57,59.6,55.7,58.2,54.9z"/>
<path class="st0" d="M40,36.5c0,1.7,0.8,3,2.4,3.9c0.7,0.4,1.8,0.8,3.5,1.3V30.7c-1.3,0.3-2.5,0.7-3.4,1.3
	C40.8,33.1,40,34.6,40,36.5z"/>
<path class="st0" d="M91.4,12.8C79.9,1.4,61.4,1.4,50,12.9C38.6,1.4,20.1,1.4,8.6,12.8C-2.9,24.2-3.1,42.6,9.5,55.2
	C23.5,69.3,46.1,91.8,50,95.7c3.9-3.9,26.5-26.5,40.5-40.5C103.1,42.6,102.9,24.2,91.4,12.8z M65,68.9c-2.7,2.3-6.3,3.7-10.8,4.2V78
	h-8.3V73c-4.3-0.5-7.8-1.9-10.5-4.1c-3.7-2.9-5.5-6.9-5.5-11.9h9.7c0.3,2.2,0.9,3.9,1.8,5c1,1.2,2.5,2.1,4.5,2.6V51.4
	c-5-1.1-8.4-2.3-10.3-3.7c-3.3-2.2-4.9-5.7-4.9-10.5c0-4.4,1.6-8,4.8-10.8c2.5-2.3,6-3.6,10.4-4.1v-4.3c0,0,0,0,0,0l8.3,0v4.6
	c3.2,0.6,6.1,1.8,8.6,3.7c3.7,2.7,5.6,6.7,5.8,11.8h-9.8c-0.2-2.9-1.5-5-3.9-6.2c-0.2-0.1-0.4-0.2-0.7-0.3v12.2l3.2,0.7
	c3.7,0.9,6.5,2.1,8.4,3.5c2.9,2.3,4.3,5.6,4.3,9.9C70.1,62.3,68.4,66,65,68.9z"/>
</svg>
