<?xml version="1.0" encoding="iso-8859-1"?>
<!-- Generator: Adobe Illustrator 18.1.1, SVG Export Plug-In . SVG Version: 6.00 Build 0)  -->
<svg xmlns="http://www.w3.org/2000/svg" xmlns:xlink="http://www.w3.org/1999/xlink" version="1.1" id="Capa_1" x="0px" y="0px" viewBox="0 0 525.938 525.938" style="enable-background:new 0 0 525.938 525.938;" xml:space="preserve" width="512px" height="512px">
<g>
	<g>
		<path d="M505.02,160.471c-13.942-32.472-32.672-60.463-56.18-83.971s-51.398-42.135-83.672-55.881    S298.828,0,262.969,0S193.043,6.873,160.77,20.619S100.606,52.992,77.098,76.5s-42.234,51.498-56.18,83.971S0,227.01,0,262.67    s6.973,69.727,20.918,102.199s32.672,60.463,56.18,83.971s51.398,42.234,83.672,56.18s66.34,20.918,102.199,20.918    s69.926-6.973,102.199-20.918c32.271-13.942,60.164-32.672,83.672-56.18c23.508-23.508,42.234-51.498,56.18-83.971    c13.946-32.476,20.918-66.539,20.918-102.199S518.965,192.943,505.02,160.471z M402.223,302.414h-99.211v99.809h-80.086v-99.809    h-99.211v-79.488h99.211v-99.809h80.086v99.809h99.211V302.414z" fill="#f2b83a"/>
	</g>
</g>
<g>
</g>
<g>
</g>
<g>
</g>
<g>
</g>
<g>
</g>
<g>
</g>
<g>
</g>
<g>
</g>
<g>
</g>
<g>
</g>
<g>
</g>
<g>
</g>
<g>
</g>
<g>
</g>
<g>
</g>
</svg>
