<?xml version="1.0" encoding="UTF-8" standalone="no"?>
<!-- Generator: Adobe Illustrator 19.0.0, SVG Export Plug-In . SVG Version: 6.00 Build 0)  -->

<svg
   xmlns:dc="http://purl.org/dc/elements/1.1/"
   xmlns:cc="http://creativecommons.org/ns#"
   xmlns:rdf="http://www.w3.org/1999/02/22-rdf-syntax-ns#"
   xmlns:svg="http://www.w3.org/2000/svg"
   xmlns="http://www.w3.org/2000/svg"
   xmlns:sodipodi="http://sodipodi.sourceforge.net/DTD/sodipodi-0.dtd"
   xmlns:inkscape="http://www.inkscape.org/namespaces/inkscape"
   version="1.1"
   id="Layer_1"
   x="0px"
   y="0px"
   viewBox="0 0 286.054 286.054"
   style="enable-background:new 0 0 286.054 286.054;"
   xml:space="preserve"
   inkscape:version="0.91 r13725"
   sodipodi:docname="up.svg"><metadata
     id="metadata3480"><rdf:RDF><cc:Work
         rdf:about=""><dc:format>image/svg+xml</dc:format><dc:type
           rdf:resource="http://purl.org/dc/dcmitype/StillImage" /></cc:Work></rdf:RDF></metadata><defs
     id="defs3478" /><sodipodi:namedview
     pagecolor="#ffffff"
     bordercolor="#666666"
     borderopacity="1"
     objecttolerance="10"
     gridtolerance="10"
     guidetolerance="10"
     inkscape:pageopacity="0"
     inkscape:pageshadow="2"
     inkscape:window-width="1196"
     inkscape:window-height="799"
     id="namedview3476"
     showgrid="false"
     inkscape:zoom="4.1250955"
     inkscape:cx="162.80224"
     inkscape:cy="161.12585"
     inkscape:window-x="37"
     inkscape:window-y="0"
     inkscape:window-maximized="0"
     inkscape:current-layer="Layer_1" /><g
     id="g3442"><path
       style="fill:#3db39e"
       d="M 286.054,143.027 C 286.054,64.031 222.014,0 143.027,0 64.04,0 0,64.031 0,143.027 c 0,78.996 64.04,143.027 143.027,143.027 78.987,0 143.027,-64.04 143.027,-143.027 z m -26.818,0 c 0,64.192 -52.026,116.2 -116.209,116.2 -64.183,0 -116.209,-52.008 -116.209,-116.2 0,-64.183 52.026,-116.209 116.209,-116.209 64.183,0 116.209,52.035 116.209,116.209 z M 203.527,137.637 153.85,86.54 c -8.45374,-7.884 -10.84944,-7.541168 -19.637,0 l -51.686,51.096 c -4.845,7.875 -0.876,14.338 8.823,14.338 l 24.86,0 0,44.696 c 0,4.943 4.005,8.939 8.939,8.939 l 35.757,0 c 4.943,0 8.939,-3.996 8.939,-8.939 l 0,-44.696 24.86,0 c 9.707,-0.008 13.676,-6.462 8.822,-14.337 z"
       id="path3444"
       inkscape:connector-curvature="0"
       sodipodi:nodetypes="ssssssssssccccscssssccc" /></g><g
     id="g3446" /><g
     id="g3448" /><g
     id="g3450" /><g
     id="g3452" /><g
     id="g3454" /><g
     id="g3456" /><g
     id="g3458" /><g
     id="g3460" /><g
     id="g3462" /><g
     id="g3464" /><g
     id="g3466" /><g
     id="g3468" /><g
     id="g3470" /><g
     id="g3472" /><g
     id="g3474" /></svg>